<?xml version="1.0" encoding="utf-8"?>
<!-- Generator: Adobe Illustrator 19.2.1, SVG Export Plug-In . SVG Version: 6.00 Build 0)  -->
<svg version="1.1" id="Capa_5" xmlns="http://www.w3.org/2000/svg" xmlns:xlink="http://www.w3.org/1999/xlink" x="0px" y="0px"
	 viewBox="0 0 792 612" style="enable-background:new 0 0 792 612;" xml:space="preserve">
<style type="text/css">
	.st0{fill:#DF161E;}
	.st1{fill:#991D1E;}
	.st2{fill:#A19FA0;}
	.st3{fill:#D4D2D2;}
	.st4{fill:#302D2E;}
	.st5{fill:none;stroke:#000000;stroke-miterlimit:10;}
	.st6{fill:#D9041B;}
	.st7{fill:#676767;}
</style>
<circle class="st0" cx="169.7" cy="470.2" r="53.5"/>
<circle class="st1" cx="289.7" cy="470.2" r="53.5"/>
<circle class="st2" cx="527.2" cy="470.2" r="53.5"/>
<circle class="st3" cx="649.1" cy="470.2" r="53.5"/>
<circle class="st4" cx="410.2" cy="470.2" r="53.5"/>
<g>
	<g>
		<g>
			<path d="M287.3,346.1v17.2h-3v-17.2H287.3z"/>
			<path d="M298.6,351l0.1,2c1-1.5,2.4-2.2,4.4-2.2c1.1,0,1.9,0.2,2.6,0.6c0.6,0.4,1.1,0.9,1.4,1.5c0.3,0.6,0.5,1.3,0.6,2.1
				c0.1,0.7,0.1,1.7,0.1,2.7v5.8h-2.3v-5.6c0-0.9,0-1.5,0-2c0-0.4-0.1-0.8-0.2-1.1c-0.2-0.7-0.5-1.2-1-1.5c-0.5-0.3-1.1-0.5-1.7-0.5
				c-0.8,0-1.5,0.2-2.1,0.7c-0.6,0.5-1,1.1-1.3,1.9c-0.1,0.2-0.1,0.5-0.2,0.8c0,0.3-0.1,0.6-0.1,1c0,0.3,0,1,0,1.8v4.6h-2.4v-6.1
				c0-0.7,0-1.4,0-1.9c0-0.6,0-1.3,0-2.1c0-0.8,0-1.6-0.1-2.3H298.6z"/>
			<path d="M328.3,351.2l-4.8,11.8h-2.8l-4.9-11.8h2.7l2.7,6.8c0.2,0.4,0.3,0.8,0.4,1.1c0.1,0.3,0.2,0.6,0.3,0.9
				c0.1,0.3,0.2,0.6,0.2,0.9c0.1-0.5,0.3-1.2,0.6-1.9l3.1-7.9H328.3z"/>
			<path d="M337.7,357.7c0.2,1.2,0.6,2.1,1.4,2.8c0.7,0.7,1.7,1,2.8,1c0.7,0,1.3-0.1,2-0.3c0.6-0.2,1.3-0.5,2-0.8v2.1
				c-0.8,0.3-1.4,0.5-2.1,0.7c-0.6,0.1-1.3,0.2-2,0.2c-1,0-1.9-0.1-2.6-0.4c-0.8-0.3-1.5-0.7-2-1.3c-0.6-0.6-1-1.2-1.3-2
				c-0.3-0.8-0.5-1.7-0.5-2.6c0-1.2,0.2-2.3,0.7-3.2c0.5-0.9,1.2-1.6,2.1-2.1c0.9-0.5,1.9-0.8,3.1-0.8c1.4,0,2.4,0.3,3.2,0.9
				c0.8,0.6,1.4,1.4,1.7,2.5c0.3,1,0.5,2.1,0.5,3.4H337.7z M337.8,356h6.7c-0.1-0.6-0.2-1.2-0.5-1.7c-0.2-0.5-0.6-0.9-1-1.2
				c-0.5-0.3-1-0.4-1.7-0.4c-0.9,0-1.7,0.3-2.3,0.9C338.3,354.1,337.9,354.9,337.8,356z"/>
			<path d="M566.1,357.9c0.2,1.2,0.6,2.1,1.4,2.8c0.7,0.7,1.7,1,2.8,1c0.7,0,1.3-0.1,2-0.3c0.6-0.2,1.3-0.5,2-0.8v2.1
				c-0.8,0.3-1.4,0.5-2.1,0.7c-0.6,0.1-1.3,0.2-2,0.2c-1,0-1.9-0.1-2.6-0.4c-0.8-0.3-1.5-0.7-2-1.3c-0.6-0.6-1-1.2-1.3-2
				c-0.3-0.8-0.5-1.7-0.5-2.6c0-1.2,0.2-2.3,0.7-3.2c0.5-0.9,1.2-1.6,2.1-2.1c0.9-0.5,1.9-0.8,3.1-0.8c1.4,0,2.4,0.3,3.2,0.9
				c0.8,0.6,1.4,1.4,1.7,2.5c0.3,1,0.5,2.1,0.5,3.4H566.1z M566.1,356.2h6.7c-0.1-0.6-0.2-1.2-0.5-1.7c-0.2-0.5-0.6-0.9-1-1.2
				c-0.5-0.3-1-0.4-1.7-0.4c-0.9,0-1.7,0.3-2.3,0.9C566.7,354.4,566.3,355.2,566.1,356.2z"/>
			<path d="M362.7,351.5l-0.2,1.8c-0.9-0.4-1.7-0.6-2.7-0.6c-0.7,0-1.2,0.1-1.6,0.4c-0.4,0.3-0.6,0.6-0.6,1.1c0,0.5,0.2,0.8,0.6,1
				c0.4,0.2,1.1,0.6,2.1,1c1,0.5,1.8,0.9,2.3,1.4c0.5,0.5,0.8,1.1,0.8,1.9c0,0.5-0.1,1-0.3,1.5c-0.2,0.4-0.5,0.8-1,1.1
				c-0.4,0.3-0.9,0.6-1.5,0.7c-0.6,0.2-1.2,0.3-1.9,0.3c-1.2,0-2.4-0.2-3.4-0.7v-2c0.6,0.3,1.2,0.5,1.7,0.6c0.5,0.1,1,0.2,1.4,0.2
				c0.5,0,0.9-0.1,1.3-0.2c0.4-0.1,0.7-0.3,0.9-0.6c0.2-0.2,0.3-0.5,0.3-0.8c0-0.4-0.2-0.8-0.6-1c-0.4-0.3-1.1-0.6-2.1-1.1
				s-1.8-0.9-2.3-1.4c-0.5-0.5-0.8-1.1-0.8-1.8c0-0.7,0.2-1.3,0.6-1.8s0.9-0.9,1.6-1.2c0.7-0.3,1.5-0.4,2.4-0.4
				C360.6,351,361.6,351.2,362.7,351.5z"/>
			<path d="M590.6,351.5l-0.2,1.8c-0.9-0.4-1.7-0.6-2.7-0.6c-0.7,0-1.2,0.1-1.6,0.4c-0.4,0.3-0.6,0.6-0.6,1.1c0,0.5,0.2,0.8,0.6,1
				c0.4,0.2,1.1,0.6,2.1,1c1,0.5,1.8,0.9,2.3,1.4c0.5,0.5,0.8,1.1,0.8,1.9c0,0.5-0.1,1-0.3,1.5c-0.2,0.4-0.5,0.8-1,1.1
				c-0.4,0.3-0.9,0.6-1.5,0.7c-0.6,0.2-1.2,0.3-1.9,0.3c-1.2,0-2.4-0.2-3.4-0.7v-2c0.6,0.3,1.2,0.5,1.7,0.6c0.5,0.1,1,0.2,1.4,0.2
				c0.5,0,0.9-0.1,1.3-0.2c0.4-0.1,0.7-0.3,0.9-0.6c0.2-0.2,0.3-0.5,0.3-0.8c0-0.4-0.2-0.8-0.6-1c-0.4-0.3-1.1-0.6-2.1-1.1
				s-1.8-0.9-2.3-1.4c-0.5-0.5-0.8-1.1-0.8-1.8c0-0.7,0.2-1.3,0.6-1.8c0.4-0.5,0.9-0.9,1.6-1.2c0.7-0.3,1.5-0.4,2.4-0.4
				C588.5,351,589.5,351.2,590.6,351.5z"/>
			<path d="M375.5,348.3v3.4h3.1v1.7h-3.1v4.6c0,1.1,0,1.8,0.1,2.3c0.1,0.4,0.3,0.8,0.6,1c0.3,0.2,0.7,0.4,1.2,0.4
				c0.5,0,0.9-0.1,1.4-0.4v1.9c-0.7,0.2-1.4,0.3-2,0.3c-1,0-1.8-0.2-2.3-0.6c-0.5-0.4-0.8-1-1-1.6c-0.1-0.7-0.2-1.6-0.2-2.6v-5.3
				h-2.7v-1.7h2.7V349L375.5,348.3z"/>
			<path d="M390,345.8v2.5h-2.5v-2.5H390z M390,351.2v12.2h-2.3v-12.2H390z"/>
			<path d="M458.4,345.8v2.5h-2.5v-2.5H458.4z M458.4,351.2v12.2h-2.3v-12.2H458.4z"/>
			<path d="M410.2,351.4v9.8c0,1.2-0.1,2.2-0.2,3c-0.1,0.8-0.4,1.6-0.8,2.2c-0.4,0.6-1,1.1-1.7,1.4c-0.8,0.3-1.8,0.5-3,0.5
				c-1.5,0-3-0.3-4.5-0.8l0.2-2.1c1.5,0.7,2.9,1.1,4.2,1.1c0.8,0,1.5-0.2,2-0.5c0.6-0.3,1-0.7,1.2-1.3c0.2-0.3,0.3-0.6,0.3-1
				c0.1-0.4,0.1-0.8,0.1-1.3c0-0.5,0-0.9,0-1.1c-0.9,1.3-2.2,2-3.9,2c-1,0-1.9-0.2-2.7-0.7c-0.8-0.5-1.4-1.2-1.8-2.1
				c-0.4-0.9-0.6-1.9-0.6-3.1c0-1.2,0.2-2.2,0.6-3.2c0.4-0.9,1-1.7,1.8-2.2s1.7-0.8,2.7-0.8c0.9,0,1.7,0.2,2.4,0.6
				c0.7,0.4,1.2,1,1.5,1.6c0-0.1,0-0.1,0-0.2c0,0,0-0.1,0-0.1l0-0.3v-1.5H410.2z M404.7,353.1c-0.6,0-1.2,0.2-1.7,0.5
				c-0.5,0.4-0.9,0.9-1.2,1.5c-0.3,0.6-0.4,1.4-0.4,2.2c0,0.8,0.1,1.5,0.4,2.1c0.3,0.6,0.7,1.1,1.2,1.4c0.5,0.3,1.1,0.5,1.7,0.5
				c0.5,0,1-0.1,1.4-0.3c0.4-0.2,0.8-0.5,1.1-0.9c0.3-0.4,0.5-0.8,0.7-1.3c0.2-0.5,0.2-1.1,0.2-1.7c0-0.8-0.1-1.5-0.4-2.1
				c-0.3-0.6-0.7-1.1-1.2-1.5C405.9,353.3,405.3,353.1,404.7,353.1z"/>
			<path d="M420.7,352.1c0.7-0.4,1.4-0.7,2-0.8c0.7-0.2,1.4-0.3,2.2-0.3c1.2,0,2.2,0.2,3,0.6c0.8,0.4,1.4,1,1.7,1.8
				c0.3,0.6,0.4,1.7,0.4,3.3v2.3c0,0.9,0,1.7,0,2.3c0,0.7,0.1,1.2,0.1,1.7h-2.1c0-0.3,0-0.6,0-0.9c0-0.4,0-0.8,0-1.1
				c-0.5,0.8-1.1,1.3-1.7,1.7s-1.5,0.5-2.5,0.5c-0.9,0-1.6-0.1-2.3-0.4c-0.7-0.3-1.2-0.7-1.5-1.2c-0.4-0.5-0.5-1.2-0.5-1.9
				c0-0.6,0.1-1.2,0.4-1.6c0.3-0.5,0.7-0.9,1.3-1.2c0.6-0.3,1.2-0.6,2.1-0.7c0.8-0.2,1.8-0.2,2.8-0.2c0.6,0,1.2,0,1.8,0
				c0-1-0.3-1.8-0.8-2.2c-0.5-0.5-1.3-0.7-2.4-0.7c-0.7,0-1.3,0.1-1.9,0.3c-0.6,0.2-1.2,0.5-1.8,0.9L420.7,352.1z M427.7,357.5
				c-0.5,0-0.9-0.1-1.3-0.1c-3.1,0-4.7,0.7-4.7,2.2c0,0.4,0.1,0.7,0.3,1s0.5,0.5,0.9,0.6c0.4,0.2,0.8,0.2,1.3,0.2
				c0.9,0,1.6-0.2,2.1-0.5s0.9-0.8,1.1-1.4C427.6,358.9,427.7,358.2,427.7,357.5z"/>
			<path d="M600.2,352.3c0.7-0.4,1.4-0.7,2-0.8c0.7-0.2,1.4-0.3,2.2-0.3c1.2,0,2.2,0.2,3,0.6c0.8,0.4,1.4,1,1.7,1.8
				c0.3,0.6,0.4,1.7,0.4,3.3v2.3c0,0.9,0,1.7,0,2.3s0.1,1.2,0.1,1.7h-2.1c0-0.3,0-0.6,0-0.9c0-0.4,0-0.8,0-1.1
				c-0.5,0.8-1.1,1.3-1.7,1.7s-1.5,0.5-2.5,0.5c-0.9,0-1.6-0.1-2.3-0.4c-0.7-0.3-1.2-0.7-1.5-1.2c-0.4-0.5-0.5-1.2-0.5-1.9
				c0-0.6,0.1-1.2,0.4-1.6c0.3-0.5,0.7-0.9,1.3-1.2c0.6-0.3,1.2-0.6,2.1-0.7c0.8-0.2,1.8-0.2,2.8-0.2c0.6,0,1.2,0,1.8,0
				c0-1-0.3-1.8-0.8-2.2c-0.5-0.5-1.3-0.7-2.4-0.7c-0.7,0-1.3,0.1-1.9,0.3c-0.6,0.2-1.2,0.5-1.8,0.9L600.2,352.3z M607.2,357.7
				c-0.5,0-0.9-0.1-1.3-0.1c-3.1,0-4.7,0.7-4.7,2.2c0,0.4,0.1,0.7,0.3,1c0.2,0.3,0.5,0.5,0.9,0.6c0.4,0.2,0.8,0.2,1.3,0.2
				c0.9,0,1.6-0.2,2.1-0.5c0.5-0.4,0.9-0.8,1.1-1.4C607.1,359.1,607.2,358.4,607.2,357.7z"/>
			<path d="M446.9,351.6l-0.2,1.9c-0.6-0.4-1.4-0.5-2.3-0.5c-0.8,0-1.5,0.2-2.2,0.5c-0.7,0.3-1.2,0.8-1.5,1.4
				c-0.4,0.6-0.5,1.3-0.5,2.1c0,0.8,0.2,1.6,0.5,2.2c0.4,0.6,0.8,1.2,1.5,1.5c0.6,0.4,1.4,0.5,2.2,0.5c0.5,0,0.9-0.1,1.3-0.2
				c0.4-0.1,0.8-0.3,1.3-0.6l0.2,2c-0.5,0.2-1,0.4-1.4,0.5c-0.5,0.1-1,0.1-1.6,0.1c-1.2,0-2.4-0.3-3.3-0.8s-1.7-1.2-2.3-2.1
				c-0.5-0.9-0.8-2-0.8-3.2c0-1.1,0.3-2.2,0.8-3.1c0.5-0.9,1.3-1.6,2.3-2.2c1-0.5,2-0.8,3.2-0.8C445.1,351.1,446,351.2,446.9,351.6z
				"/>
			<path d="M479.7,356.9c0,1.2-0.3,2.3-0.8,3.2c-0.5,0.9-1.2,1.7-2.2,2.2c-0.9,0.5-2,0.8-3.1,0.8c-1.1,0-2.2-0.3-3.1-0.8
				c-0.9-0.5-1.6-1.3-2.1-2.2c-0.5-1-0.8-2-0.8-3.2c0-0.9,0.1-1.7,0.4-2.5c0.3-0.8,0.7-1.4,1.3-2c0.5-0.6,1.2-1,1.9-1.3
				c0.7-0.3,1.5-0.5,2.4-0.5c0.9,0,1.7,0.1,2.4,0.4c0.7,0.3,1.4,0.7,1.9,1.3s1,1.2,1.3,2C479.6,355.2,479.7,356,479.7,356.9z
				 M477.4,356.9c0-0.6-0.1-1.3-0.3-1.8c-0.2-0.6-0.4-1.1-0.8-1.5c-0.3-0.4-0.7-0.7-1.2-0.9c-0.5-0.2-0.9-0.3-1.5-0.3
				c-1.1,0-2,0.4-2.7,1.3c-0.7,0.8-1.1,1.9-1.1,3.2c0,0.9,0.2,1.6,0.5,2.3c0.3,0.7,0.8,1.2,1.3,1.6c0.6,0.4,1.2,0.6,1.9,0.6
				c0.7,0,1.3-0.2,1.9-0.6c0.6-0.4,1-0.9,1.3-1.6C477.2,358.5,477.4,357.8,477.4,356.9z M476.6,345.3l-2.8,3.3h-1.5l1.9-3.3H476.6z"
				/>
			<path d="M490.7,350.7l0.1,2c1-1.5,2.4-2.2,4.3-2.2c1.1,0,1.9,0.2,2.5,0.6s1.1,0.9,1.4,1.5s0.5,1.3,0.6,2.1
				c0.1,0.8,0.1,1.7,0.1,2.8v5.9h-2.3v-5.7c0-0.9,0-1.6,0-2c0-0.4-0.1-0.8-0.2-1.1c-0.2-0.7-0.5-1.2-1-1.5s-1-0.5-1.7-0.5
				c-0.8,0-1.5,0.2-2.1,0.7c-0.6,0.5-1,1.1-1.3,1.9c-0.1,0.2-0.1,0.5-0.2,0.8c0,0.3-0.1,0.6-0.1,1c0,0.4,0,1,0,1.9v4.7h-2.3v-6.3
				c0-0.7,0-1.4,0-2c0-0.6,0-1.3,0-2.1c0-0.8,0-1.6-0.1-2.3H490.7z"/>
			<path d="M526.5,351l-4.6,12c-0.5,1.2-0.9,2.2-1.2,2.8c-0.3,0.6-0.8,1.2-1.5,1.7c-0.7,0.5-1.5,0.7-2.5,0.7c-0.4,0-0.9-0.1-1.5-0.2
				l0.1-1.8c0.4,0.1,0.8,0.2,1.1,0.2c0.8,0,1.4-0.3,1.8-0.8c0.5-0.5,0.8-1.2,1.1-2l-4.9-12.6h2.6l2.9,7.7c0.4,1.1,0.6,1.9,0.7,2.5
				c0.1-0.5,0.3-1.1,0.6-1.9l3-8.2H526.5z"/>
			<path d="M541.7,346.1h3.3c1.1,0,2,0,2.7,0.1c1.1,0.1,2.1,0.4,3,0.9c0.9,0.5,1.7,1.1,2.3,1.9c0.6,0.8,1.1,1.6,1.5,2.6
				c0.3,1,0.5,2.1,0.5,3.3c0,0.9-0.1,1.9-0.4,2.7c-0.3,0.9-0.6,1.7-1.1,2.4c-0.5,0.7-1,1.3-1.7,1.8c-0.7,0.5-1.4,0.9-2.2,1.2
				c-0.4,0.2-0.8,0.3-1.2,0.3c-0.4,0.1-0.9,0.1-1.3,0.2c-0.5,0-1.1,0.1-1.8,0.1h-3.7V346.1z M544,348.3v13.2h1.2
				c1.1,0,1.9,0,2.4-0.1c0.5-0.1,1.1-0.3,1.7-0.5c0.7-0.3,1.3-0.8,1.8-1.4c0.5-0.6,0.9-1.3,1.2-2.1c0.3-0.8,0.4-1.6,0.4-2.6
				c0-0.7-0.1-1.4-0.3-2c-0.2-0.7-0.4-1.3-0.8-1.8c-0.3-0.5-0.7-1-1.2-1.4s-1-0.7-1.5-0.9c-0.4-0.2-0.8-0.3-1.4-0.3
				c-0.6-0.1-1.3-0.1-2.2-0.1H544z"/>
			<path d="M619.4,351.3h2l0.1,2.1c0.4-0.7,0.8-1.3,1.4-1.7c0.6-0.4,1.2-0.6,2-0.6c0.4,0,0.8,0.1,1.2,0.2v2c-0.4-0.1-0.7-0.2-1-0.2
				c-0.8,0-1.4,0.2-1.9,0.7c-0.5,0.4-0.9,1-1.1,1.7c-0.2,0.7-0.3,1.4-0.3,2.1v0.8v4.6h-2.2v-7.2
				C619.5,354.7,619.5,353.2,619.4,351.3z"/>
			<path d="M634,350.8h2l0.1,2.1c0.4-0.7,0.8-1.3,1.4-1.7c0.6-0.4,1.2-0.6,2-0.6c0.4,0,0.8,0.1,1.2,0.2v2c-0.4-0.1-0.7-0.2-1-0.2
				c-0.8,0-1.4,0.2-1.9,0.7c-0.5,0.4-0.9,1-1.1,1.7c-0.2,0.7-0.3,1.4-0.3,2.1v0.8v4.6h-2.2v-7.2C634.2,354.3,634.1,352.7,634,350.8z
				"/>
			<path d="M660.3,357.6c0,1.2-0.3,2.3-0.8,3.2c-0.5,0.9-1.2,1.7-2.2,2.2c-0.9,0.5-2,0.8-3.1,0.8c-1.1,0-2.2-0.3-3.1-0.8
				c-0.9-0.5-1.6-1.3-2.1-2.2c-0.5-1-0.8-2-0.8-3.2c0-0.9,0.1-1.7,0.4-2.5s0.7-1.4,1.3-2c0.5-0.6,1.2-1,1.9-1.3
				c0.7-0.3,1.5-0.5,2.4-0.5c0.9,0,1.7,0.1,2.4,0.4c0.7,0.3,1.4,0.7,1.9,1.3c0.5,0.6,1,1.2,1.3,2
				C660.2,355.9,660.3,356.7,660.3,357.6z M658,357.7c0-0.6-0.1-1.3-0.3-1.8c-0.2-0.6-0.4-1.1-0.8-1.5c-0.3-0.4-0.7-0.7-1.2-0.9
				c-0.5-0.2-0.9-0.3-1.5-0.3c-1.1,0-2,0.4-2.7,1.3c-0.7,0.8-1.1,1.9-1.1,3.2c0,0.9,0.2,1.6,0.5,2.3c0.3,0.7,0.8,1.2,1.3,1.6
				c0.6,0.4,1.2,0.6,1.9,0.6c0.7,0,1.3-0.2,1.9-0.6c0.6-0.4,1-0.9,1.3-1.6C657.9,359.3,658,358.5,658,357.7z"/>
			<path d="M706,357.1c0,1.2-0.3,2.3-0.8,3.2c-0.5,0.9-1.2,1.7-2.2,2.2c-0.9,0.5-2,0.8-3.1,0.8c-1.1,0-2.2-0.3-3.1-0.8
				c-0.9-0.5-1.6-1.3-2.1-2.2c-0.5-1-0.8-2-0.8-3.2c0-0.9,0.1-1.7,0.4-2.5s0.7-1.4,1.3-2c0.5-0.6,1.2-1,1.9-1.3
				c0.7-0.3,1.5-0.5,2.4-0.5c0.9,0,1.7,0.1,2.4,0.4c0.7,0.3,1.4,0.7,1.9,1.3c0.5,0.6,1,1.2,1.3,2S706,356.2,706,357.1z M703.7,357.2
				c0-0.6-0.1-1.3-0.3-1.8c-0.2-0.6-0.4-1.1-0.8-1.5c-0.3-0.4-0.7-0.7-1.2-0.9c-0.5-0.2-0.9-0.3-1.5-0.3c-1.1,0-2,0.4-2.7,1.3
				c-0.7,0.8-1.1,1.9-1.1,3.2c0,0.9,0.2,1.6,0.5,2.3c0.3,0.7,0.8,1.2,1.3,1.6c0.6,0.4,1.2,0.6,1.9,0.6c0.7,0,1.3-0.2,1.9-0.6
				c0.6-0.4,1-0.9,1.3-1.6C703.5,358.8,703.7,358,703.7,357.2z"/>
			<path d="M671.7,345.9v17.4h-2.2v-17.4H671.7z"/>
			<path d="M684.4,345.9v17.4h-2.2v-17.4H684.4z"/>
			<path d="M733.1,347.5l-0.2,2.3c-0.6-0.4-1.2-0.6-1.7-0.8c-0.5-0.1-1.1-0.2-1.7-0.2c-0.9,0-1.7,0.1-2.4,0.4
				c-0.7,0.3-1.4,0.7-1.9,1.3c-0.5,0.6-1,1.2-1.3,2c-0.3,0.8-0.4,1.6-0.4,2.5c0,1.2,0.3,2.3,0.8,3.3c0.5,1,1.3,1.8,2.2,2.3
				c0.9,0.6,2,0.8,3.2,0.8c1.1,0,2.2-0.2,3.4-0.7l0.2,2.3c-0.6,0.2-1.2,0.4-1.7,0.4c-0.5,0.1-1.1,0.1-1.8,0.1c-1.7,0-3.2-0.3-4.5-1
				c-1.3-0.7-2.3-1.7-3.1-2.9c-0.7-1.3-1.1-2.8-1.1-4.6c0-1.6,0.4-3,1.1-4.3c0.7-1.3,1.7-2.2,3-3c1.3-0.7,2.7-1.1,4.4-1.1
				C730.9,346.8,732.1,347,733.1,347.5z"/>
			<path d="M744.8,360.4v2.6h-2.6v-2.6H744.8z"/>
			<path d="M762.5,346.5l6.9,16.9h-2.6l-1.7-4.3h-7.8l-1.7,4.3h-2.5l6.8-16.9H762.5z M764.4,357.1l-1.8-4.7
				c-0.4-0.9-0.6-1.6-0.8-2.1c-0.2-0.5-0.3-1.1-0.5-1.6c-0.1,0.5-0.3,0.9-0.4,1.4c-0.2,0.4-0.5,1.3-0.9,2.5l-1.8,4.7H764.4z"/>
			<path d="M780,360.2v2.6h-2.6v-2.6H780z"/>
		</g>
		<g>
			<path d="M328.4,267.3h29.1c0,0,0,12.1,0,12.1c0-1.8,3.1-5,4.2-6.1c3.6-4.2,7.4-5.8,12.9-6.2c5.7-0.4,11-1,16.2,1.8
				c9,4.9,9.8,14.6,9.8,23.7c0,8.4,0,16.8,0,25.1c0,0.8,0,14.4,0,14.4h-29.7c0-11.6,0-23.1,0-34.7c0-4.3,0.3-12.2-6.3-11.3
				c0,0-4.4-1.1-5.4,5.3v40.6h-30.7V267.3z"/>
			<g>
				<path d="M456.4,298.5c0-1.9,0-4.8,0-6.6c-0.1-0.6-0.2-1.2-0.4-1.8v17.4c0.4-1.4,0.4-2.8,0.4-4.6
					C456.4,301.5,456.4,300,456.4,298.5z"/>
				<path d="M456,240.5v35.9c-4.9-6.5-11.9-10.6-19.6-10.6c-14.9,0-27,15.2-27,33.8c0,18.7,12.1,33.8,27,33.8
					c7.7,0,14.7-4.1,19.6-10.6v10.5h30.4v-92.9H456z M454.3,310.3c-0.8,1.1-1.9,2.1-3.2,2.6c-1.5,0.6-4,0.4-5.5-0.3
					c-2-1-3.6-3.2-4.1-5.5c-0.2-1.1-0.6-2.7-0.6-3.8v-10.3c0-1.2,0.8-2.7,1.3-3.7c1.7-2.9,5.3-4.3,8.5-3.6c3.4,0.7,4.8,3.2,5.2,6.3
					V303C456,305.8,456,307.9,454.3,310.3z"/>
			</g>
			<path class="st5" d="M524.8,293.7"/>
			<path d="M540.6,266.5c0,0-40.7-6.6-45.2,27c0,0-6.4,35.4,29.7,40c0,0,25.6,1.6,37.4-3.5v-16.8c0,0-34.2,13.2-37.4-5.9h42.3
				C567.4,307.3,571.7,270.5,540.6,266.5z M540.7,293.7c0,0-15.9,0-15.9,0c-0.6,0,0.1-7.6,0.5-8.2c3.7-6.1,8.3-6,12-3.5
				C540.9,284.3,541,289.9,540.7,293.7z"/>
			<path d="M630.4,286.1v-17.2c0,0-51.6-11.7-58.2,14.1c0,0-6.3,22.8,23.5,25.1c2.8,0.3,10.6,0.9,11.6,4.1c0.3,0.8-0.1,1.7-0.7,2.3
				c-2.7,2.7-8.3,2.8-11.7,2.8c-3.2-0.1-6.3-0.6-9.4-1.4c-2-0.5-3.9-1.1-5.8-1.8c-0.7-0.3-6.2-2-6.2-2.6l0.2,18.6
				c0,0,32.3,8.4,48.2-0.8c0,0,18.3-6.4,12.9-24.9c0,0-3.7-10.8-19.1-12.7c-3.8-0.5-7.7-0.7-11.4-1.7c-1.4-0.4-4.2-1.1-4.6-2.8
				c-0.5-2.3,3.8-4.2,5.4-4.6c1-0.3,2.1-0.3,3.1-0.4C615.8,281.9,623.3,283.3,630.4,286.1z"/>
			<path d="M701.6,287.7c0,0,0-19,0-19s-59.8-15.9-61.4,29.1c0,0-5.1,48.4,61.4,32.5c0,0,0-18.5,0-18.5c0,1.1-8.8,2.8-9.6,2.9
				c-5.7,0.9-12,0.1-15.8-4.7c-4.3-5.6-4.9-13.8-0.8-19.7c3.8-5.4,10.5-6.3,16.7-5.3C693.2,285.2,701.6,286.8,701.6,287.7z"/>
			<path d="M779.4,285.4c-1.3-4.8-4.3-9.1-8.3-12.1c-9.8-7.4-23.6-7.7-35.3-6.7c-5.1,0.5-10.1,1.2-15.1,2.3
				c-0.4,0.1-6.2,1.2-6.2,1.5c0,0,0,16.9,0,16.9c0-0.7,8-2.7,9-3c6.9-1.9,14.9-3.3,21.9-1c1.8,0.6,3.5,1.4,4.9,2.5
				c2.1,1.7,2.4,3.1,2.3,6c-6.8,0-13.6,0-20.4,0c-26.7,0.6-24.6,24.1-24.6,24.1c0.5,15.1,15.8,16.6,15.8,16.6c21.9,4.8,28-10,28-10
				l0.2,10H780c0-3.9,0-7.9,0-11.8c0-7.9,0-15.9,0-23.8C780,293.1,780.4,289.2,779.4,285.4z M745.2,317.3c-8.2,1.6-9.3-4.2-9.3-4.2
				c-2.7-11.7,16.1-9.5,16.1-9.5C753.5,315.4,745.2,317.3,745.2,317.3z"/>
			<path d="M316.3,245.3v86.8h-32v-86.8H316.3z"/>
		</g>
	</g>
	<g>
		<g>
			<path class="st6" d="M72.5,237.8c0,0,28.6,9,44-8L116.4,332c0,0,0.4,6.8,6.3,9h5c0,0,6.1-0.4,6.6-8.9V303l67.6,0.1
				c0,0,8.2-2.7,8.1-9.9l0-6.6c0,0-0.8-6.8-7.8-8.1l-68.4-0.2l0.2-68.7c0,0,63.6,0,63.6,0c13.2,0,26.2,7.2,35.1,16.4
				c23.3,24.2,27.4,65.9,15.9,96.5c-8.3,22-26.3,43.4-51.9,43.4c0,0-124.1,0-124.1,0V237.8z"/>
			<path class="st6" d="M81.8,222.5L62,202.8c-3.7-3.7-3.7-9.7,0-13.4l19.8-19.8c3.7-3.7,9.7-3.7,13.4,0l19.8,19.8
				c3.7,3.7,3.7,9.7,0,13.4l-19.8,19.8C91.5,226.2,85.5,226.2,81.8,222.5z"/>
		</g>
		<g>
			<path class="st7" d="M129.9,193.2C128.6,170.3,109,152.7,86,154c-22.9,1.3-40.5,20.9-39.2,43.8c1.3,22.9,20.9,40.5,43.8,39.2
				C113.6,235.7,131.1,216.1,129.9,193.2z M88.4,231.5c-19.9,0-36-16.1-36-36c0-19.9,16.1-36,36-36c19.9,0,36,16.1,36,36
				C124.4,215.4,108.3,231.5,88.4,231.5z"/>
			<path class="st7" d="M57.6,239.6L22.9,277c-2.5,2.7-6.8,2.9-9.5,0.4l-2.9-2.7c-2.8-2.6-3-7-0.4-9.8l34.5-37.2
				c0.8-0.8,2.1-0.9,2.9-0.1l1,0.9l8.3-9l7.8,7.3l-8.3,9l1,0.9C58.4,237.4,58.4,238.7,57.6,239.6z"/>
		</g>
	</g>
</g>
</svg>
